<svg width="1921" height="982" viewBox="0 0 1921 982" fill="none" xmlns="http://www.w3.org/2000/svg">
<path d="M0.347656 140C124.329 82.8454 321.288 33.8826 682.348 34.5C869.184 34.8195 1067.74 85.0246 1390.85 77C1836.35 65.9355 1920.35 0 1920.35 0V982C1556.61 925.462 1351.21 909.87 971.848 910.5C971.848 910.5 697.848 910.5 481.848 901.5C265.848 892.5 0.347656 858 0.347656 858V140Z" fill="#9ED5FE"/>
<path d="M0 140C173.081 59.1443 437.121 28.2846 730 36.9998C991 59.5 1288.06 87.1145 1655 140L1639.5 944C1553.3 939.266 1483.09 928.381 1397 923.975C1054.9 906.466 676.496 917.478 450.496 905.653C263.996 898.41 0 869.437 0 869.437V140Z" fill="url(#paint0_linear_38_467)"/>
<defs>
<linearGradient id="paint0_linear_38_467" x1="-0.00390336" y1="549.819" x2="1655" y2="549.819" gradientUnits="userSpaceOnUse">
<stop offset="0.234375" stop-color="white" stop-opacity="0.8"/>
<stop offset="0.791667" stop-color="white" stop-opacity="0"/>
</linearGradient>
</defs>
</svg>
